<mxfile host="Electron" modified="2024-05-15T21:52:42.575Z" agent="Mozilla/5.0 (Windows NT 10.0; Win64; x64) AppleWebKit/537.36 (KHTML, like Gecko) draw.io/24.2.5 Chrome/120.0.6099.109 Electron/28.1.0 Safari/537.36" etag="LU6_43yOIVJpZGxfmaZj" version="24.2.5" type="device">
  <diagram name="Webhooks" id="K2vFNdNuRs0CPyayD4rR">
    <mxGraphModel dx="1434" dy="844" grid="1" gridSize="10" guides="1" tooltips="1" connect="1" arrows="1" fold="1" page="1" pageScale="1" pageWidth="1100" pageHeight="850" math="0" shadow="0">
      <root>
        <mxCell id="0" />
        <mxCell id="1" parent="0" />
        <mxCell id="xIbpthMDQHaRVzhuKisp-6" value="BitBucket Data Center&lt;div&gt;Instance 1&lt;/div&gt;" style="rounded=0;whiteSpace=wrap;html=1;verticalAlign=top;" vertex="1" parent="1">
          <mxGeometry x="90" y="30" width="150" height="160" as="geometry" />
        </mxCell>
        <mxCell id="xIbpthMDQHaRVzhuKisp-8" value="Project A" style="rounded=1;whiteSpace=wrap;html=1;" vertex="1" parent="1">
          <mxGeometry x="120" y="70" width="80" height="30" as="geometry" />
        </mxCell>
        <mxCell id="xIbpthMDQHaRVzhuKisp-9" value="Project B" style="rounded=1;whiteSpace=wrap;html=1;" vertex="1" parent="1">
          <mxGeometry x="120" y="110" width="80" height="30" as="geometry" />
        </mxCell>
        <mxCell id="xIbpthMDQHaRVzhuKisp-10" value="Project C" style="rounded=1;whiteSpace=wrap;html=1;" vertex="1" parent="1">
          <mxGeometry x="120" y="150" width="80" height="30" as="geometry" />
        </mxCell>
        <mxCell id="xIbpthMDQHaRVzhuKisp-11" value="BitBucket Data Center&lt;div&gt;Instance &lt;i&gt;N&lt;/i&gt;&lt;/div&gt;" style="rounded=0;whiteSpace=wrap;html=1;verticalAlign=top;" vertex="1" parent="1">
          <mxGeometry x="90" y="196" width="150" height="160" as="geometry" />
        </mxCell>
        <mxCell id="xIbpthMDQHaRVzhuKisp-12" value="Project A" style="rounded=1;whiteSpace=wrap;html=1;" vertex="1" parent="1">
          <mxGeometry x="120" y="236" width="80" height="30" as="geometry" />
        </mxCell>
        <mxCell id="xIbpthMDQHaRVzhuKisp-13" value="Project B" style="rounded=1;whiteSpace=wrap;html=1;" vertex="1" parent="1">
          <mxGeometry x="120" y="276" width="80" height="30" as="geometry" />
        </mxCell>
        <mxCell id="xIbpthMDQHaRVzhuKisp-14" value="Project C" style="rounded=1;whiteSpace=wrap;html=1;" vertex="1" parent="1">
          <mxGeometry x="120" y="316" width="80" height="30" as="geometry" />
        </mxCell>
        <mxCell id="xIbpthMDQHaRVzhuKisp-15" value="" style="group" vertex="1" connectable="0" parent="1">
          <mxGeometry x="470" y="290" width="160" height="120" as="geometry" />
        </mxCell>
        <mxCell id="xIbpthMDQHaRVzhuKisp-2" value="CxOneFlow" style="rounded=0;whiteSpace=wrap;html=1;verticalAlign=top;" vertex="1" parent="xIbpthMDQHaRVzhuKisp-15">
          <mxGeometry x="40" width="120" height="120" as="geometry" />
        </mxCell>
        <mxCell id="xIbpthMDQHaRVzhuKisp-4" value="/bbdc" style="rounded=1;whiteSpace=wrap;html=1;" vertex="1" parent="xIbpthMDQHaRVzhuKisp-15">
          <mxGeometry y="26" width="80" height="30" as="geometry" />
        </mxCell>
        <mxCell id="xIbpthMDQHaRVzhuKisp-5" value="/adoe" style="rounded=1;whiteSpace=wrap;html=1;" vertex="1" parent="xIbpthMDQHaRVzhuKisp-15">
          <mxGeometry y="80" width="80" height="30" as="geometry" />
        </mxCell>
        <mxCell id="xIbpthMDQHaRVzhuKisp-17" value="Checkmarx One&lt;div&gt;Multi-Tenant&lt;/div&gt;" style="rounded=1;whiteSpace=wrap;html=1;verticalAlign=top;" vertex="1" parent="1">
          <mxGeometry x="770" y="135" width="120" height="170" as="geometry" />
        </mxCell>
        <mxCell id="xIbpthMDQHaRVzhuKisp-18" value="Checkmarx One&lt;div&gt;Single-Tenant &lt;i&gt;N&lt;/i&gt;&lt;/div&gt;" style="rounded=1;whiteSpace=wrap;html=1;" vertex="1" parent="1">
          <mxGeometry x="770" y="400" width="120" height="60" as="geometry" />
        </mxCell>
        <mxCell id="xIbpthMDQHaRVzhuKisp-19" value="Checkmarx One&lt;div&gt;Single-Tenant 1&lt;/div&gt;" style="rounded=1;whiteSpace=wrap;html=1;" vertex="1" parent="1">
          <mxGeometry x="770" y="320" width="120" height="60" as="geometry" />
        </mxCell>
        <mxCell id="xIbpthMDQHaRVzhuKisp-20" value="Tenant 1" style="rounded=1;whiteSpace=wrap;html=1;" vertex="1" parent="1">
          <mxGeometry x="790" y="175" width="80" height="30" as="geometry" />
        </mxCell>
        <mxCell id="xIbpthMDQHaRVzhuKisp-21" value="Tenant &lt;i&gt;N&lt;/i&gt;" style="rounded=1;whiteSpace=wrap;html=1;" vertex="1" parent="1">
          <mxGeometry x="790" y="255" width="80" height="30" as="geometry" />
        </mxCell>
        <mxCell id="xIbpthMDQHaRVzhuKisp-24" value="..." style="text;strokeColor=none;align=center;fillColor=none;html=1;verticalAlign=middle;whiteSpace=wrap;rounded=0;fontSize=26;" vertex="1" parent="1">
          <mxGeometry x="800" y="209" width="60" height="30" as="geometry" />
        </mxCell>
        <mxCell id="xIbpthMDQHaRVzhuKisp-26" value="Azure DevOps Enterprise&lt;div&gt;Instance &lt;i&gt;N&lt;/i&gt;&lt;/div&gt;" style="rounded=0;whiteSpace=wrap;html=1;verticalAlign=top;" vertex="1" parent="1">
          <mxGeometry x="90" y="560" width="150" height="160" as="geometry" />
        </mxCell>
        <mxCell id="xIbpthMDQHaRVzhuKisp-27" value="Azure DevOps Enterprise&lt;div&gt;Instance 1&lt;/div&gt;" style="rounded=0;whiteSpace=wrap;html=1;verticalAlign=top;" vertex="1" parent="1">
          <mxGeometry x="90" y="392" width="150" height="160" as="geometry" />
        </mxCell>
        <mxCell id="xIbpthMDQHaRVzhuKisp-28" value="Project A" style="rounded=1;whiteSpace=wrap;html=1;" vertex="1" parent="1">
          <mxGeometry x="120" y="432" width="80" height="30" as="geometry" />
        </mxCell>
        <mxCell id="xIbpthMDQHaRVzhuKisp-29" value="Project B" style="rounded=1;whiteSpace=wrap;html=1;" vertex="1" parent="1">
          <mxGeometry x="120" y="472" width="80" height="30" as="geometry" />
        </mxCell>
        <mxCell id="xIbpthMDQHaRVzhuKisp-30" value="Project C" style="rounded=1;whiteSpace=wrap;html=1;" vertex="1" parent="1">
          <mxGeometry x="120" y="512" width="80" height="30" as="geometry" />
        </mxCell>
        <mxCell id="xIbpthMDQHaRVzhuKisp-31" value="Project A" style="rounded=1;whiteSpace=wrap;html=1;" vertex="1" parent="1">
          <mxGeometry x="120" y="600" width="80" height="30" as="geometry" />
        </mxCell>
        <mxCell id="xIbpthMDQHaRVzhuKisp-32" value="Project B" style="rounded=1;whiteSpace=wrap;html=1;" vertex="1" parent="1">
          <mxGeometry x="120" y="640" width="80" height="30" as="geometry" />
        </mxCell>
        <mxCell id="xIbpthMDQHaRVzhuKisp-33" value="Project C" style="rounded=1;whiteSpace=wrap;html=1;" vertex="1" parent="1">
          <mxGeometry x="120" y="680" width="80" height="30" as="geometry" />
        </mxCell>
        <mxCell id="xIbpthMDQHaRVzhuKisp-34" value="" style="endArrow=classic;html=1;rounded=0;exitX=1;exitY=0.5;exitDx=0;exitDy=0;entryX=0;entryY=0.5;entryDx=0;entryDy=0;" edge="1" parent="1" source="xIbpthMDQHaRVzhuKisp-2" target="xIbpthMDQHaRVzhuKisp-17">
          <mxGeometry width="50" height="50" relative="1" as="geometry">
            <mxPoint x="590" y="210" as="sourcePoint" />
            <mxPoint x="640" y="160" as="targetPoint" />
          </mxGeometry>
        </mxCell>
        <mxCell id="xIbpthMDQHaRVzhuKisp-35" value="" style="endArrow=classic;html=1;rounded=0;exitX=1;exitY=0.5;exitDx=0;exitDy=0;entryX=0;entryY=0.5;entryDx=0;entryDy=0;" edge="1" parent="1" source="xIbpthMDQHaRVzhuKisp-2" target="xIbpthMDQHaRVzhuKisp-19">
          <mxGeometry width="50" height="50" relative="1" as="geometry">
            <mxPoint x="640" y="360" as="sourcePoint" />
            <mxPoint x="730" y="290" as="targetPoint" />
          </mxGeometry>
        </mxCell>
        <mxCell id="xIbpthMDQHaRVzhuKisp-36" value="" style="endArrow=classic;html=1;rounded=0;exitX=1;exitY=0.5;exitDx=0;exitDy=0;entryX=0;entryY=0.5;entryDx=0;entryDy=0;" edge="1" parent="1" source="xIbpthMDQHaRVzhuKisp-2" target="xIbpthMDQHaRVzhuKisp-18">
          <mxGeometry width="50" height="50" relative="1" as="geometry">
            <mxPoint x="650" y="370" as="sourcePoint" />
            <mxPoint x="740" y="300" as="targetPoint" />
          </mxGeometry>
        </mxCell>
        <mxCell id="xIbpthMDQHaRVzhuKisp-37" value="" style="endArrow=classic;html=1;rounded=0;exitX=1;exitY=0.5;exitDx=0;exitDy=0;entryX=0;entryY=0.5;entryDx=0;entryDy=0;" edge="1" parent="1" source="xIbpthMDQHaRVzhuKisp-28" target="xIbpthMDQHaRVzhuKisp-5">
          <mxGeometry width="50" height="50" relative="1" as="geometry">
            <mxPoint x="320" y="510" as="sourcePoint" />
            <mxPoint x="370" y="460" as="targetPoint" />
            <Array as="points">
              <mxPoint x="330" y="447" />
              <mxPoint x="330" y="385" />
            </Array>
          </mxGeometry>
        </mxCell>
        <mxCell id="xIbpthMDQHaRVzhuKisp-40" value="" style="endArrow=classic;html=1;rounded=0;exitX=1;exitY=0.5;exitDx=0;exitDy=0;entryX=0;entryY=0.5;entryDx=0;entryDy=0;" edge="1" parent="1" source="xIbpthMDQHaRVzhuKisp-29" target="xIbpthMDQHaRVzhuKisp-5">
          <mxGeometry width="50" height="50" relative="1" as="geometry">
            <mxPoint x="210" y="457" as="sourcePoint" />
            <mxPoint x="480" y="395" as="targetPoint" />
            <Array as="points">
              <mxPoint x="330" y="487" />
              <mxPoint x="330" y="450" />
              <mxPoint x="330" y="385" />
            </Array>
          </mxGeometry>
        </mxCell>
        <mxCell id="xIbpthMDQHaRVzhuKisp-41" value="" style="endArrow=classic;html=1;rounded=0;exitX=1;exitY=0.5;exitDx=0;exitDy=0;entryX=0;entryY=0.5;entryDx=0;entryDy=0;" edge="1" parent="1" source="xIbpthMDQHaRVzhuKisp-30" target="xIbpthMDQHaRVzhuKisp-5">
          <mxGeometry width="50" height="50" relative="1" as="geometry">
            <mxPoint x="220" y="467" as="sourcePoint" />
            <mxPoint x="490" y="405" as="targetPoint" />
            <Array as="points">
              <mxPoint x="330" y="527" />
              <mxPoint x="330" y="385" />
            </Array>
          </mxGeometry>
        </mxCell>
        <mxCell id="xIbpthMDQHaRVzhuKisp-42" value="" style="endArrow=classic;html=1;rounded=0;exitX=1;exitY=0.5;exitDx=0;exitDy=0;entryX=0;entryY=0.5;entryDx=0;entryDy=0;" edge="1" parent="1" source="xIbpthMDQHaRVzhuKisp-31" target="xIbpthMDQHaRVzhuKisp-5">
          <mxGeometry width="50" height="50" relative="1" as="geometry">
            <mxPoint x="200" y="614" as="sourcePoint" />
            <mxPoint x="470" y="552" as="targetPoint" />
            <Array as="points">
              <mxPoint x="330" y="614" />
              <mxPoint x="330" y="552" />
              <mxPoint x="330" y="385" />
            </Array>
          </mxGeometry>
        </mxCell>
        <mxCell id="xIbpthMDQHaRVzhuKisp-43" value="" style="endArrow=classic;html=1;rounded=0;exitX=1;exitY=0.5;exitDx=0;exitDy=0;entryX=0;entryY=0.5;entryDx=0;entryDy=0;" edge="1" parent="1" source="xIbpthMDQHaRVzhuKisp-32" target="xIbpthMDQHaRVzhuKisp-5">
          <mxGeometry width="50" height="50" relative="1" as="geometry">
            <mxPoint x="200" y="654" as="sourcePoint" />
            <mxPoint x="470" y="552" as="targetPoint" />
            <Array as="points">
              <mxPoint x="330" y="654" />
              <mxPoint x="330" y="617" />
              <mxPoint x="330" y="552" />
              <mxPoint x="330" y="385" />
            </Array>
          </mxGeometry>
        </mxCell>
        <mxCell id="xIbpthMDQHaRVzhuKisp-44" value="" style="endArrow=classic;html=1;rounded=0;exitX=1;exitY=0.5;exitDx=0;exitDy=0;entryX=0;entryY=0.5;entryDx=0;entryDy=0;" edge="1" parent="1" source="xIbpthMDQHaRVzhuKisp-33" target="xIbpthMDQHaRVzhuKisp-5">
          <mxGeometry width="50" height="50" relative="1" as="geometry">
            <mxPoint x="200" y="694" as="sourcePoint" />
            <mxPoint x="470" y="552" as="targetPoint" />
            <Array as="points">
              <mxPoint x="330" y="694" />
              <mxPoint x="330" y="552" />
              <mxPoint x="330" y="385" />
            </Array>
          </mxGeometry>
        </mxCell>
        <mxCell id="xIbpthMDQHaRVzhuKisp-45" value="" style="endArrow=classic;html=1;rounded=0;entryX=0;entryY=0.5;entryDx=0;entryDy=0;exitX=1;exitY=0.5;exitDx=0;exitDy=0;" edge="1" parent="1" source="xIbpthMDQHaRVzhuKisp-14" target="xIbpthMDQHaRVzhuKisp-4">
          <mxGeometry width="50" height="50" relative="1" as="geometry">
            <mxPoint x="310" y="240" as="sourcePoint" />
            <mxPoint x="360" y="190" as="targetPoint" />
          </mxGeometry>
        </mxCell>
        <mxCell id="xIbpthMDQHaRVzhuKisp-46" value="" style="endArrow=classic;html=1;rounded=0;exitX=1;exitY=0.5;exitDx=0;exitDy=0;entryX=0;entryY=0.5;entryDx=0;entryDy=0;" edge="1" parent="1" source="xIbpthMDQHaRVzhuKisp-13" target="xIbpthMDQHaRVzhuKisp-4">
          <mxGeometry width="50" height="50" relative="1" as="geometry">
            <mxPoint x="320" y="190" as="sourcePoint" />
            <mxPoint x="370" y="140" as="targetPoint" />
            <Array as="points">
              <mxPoint x="330" y="290" />
              <mxPoint x="330" y="331" />
            </Array>
          </mxGeometry>
        </mxCell>
        <mxCell id="xIbpthMDQHaRVzhuKisp-47" value="" style="endArrow=classic;html=1;rounded=0;exitX=1;exitY=0.5;exitDx=0;exitDy=0;entryX=0;entryY=0.5;entryDx=0;entryDy=0;" edge="1" parent="1" source="xIbpthMDQHaRVzhuKisp-12" target="xIbpthMDQHaRVzhuKisp-4">
          <mxGeometry width="50" height="50" relative="1" as="geometry">
            <mxPoint x="420" y="190" as="sourcePoint" />
            <mxPoint x="470" y="140" as="targetPoint" />
            <Array as="points">
              <mxPoint x="330" y="250" />
              <mxPoint x="330" y="331" />
            </Array>
          </mxGeometry>
        </mxCell>
        <mxCell id="xIbpthMDQHaRVzhuKisp-48" value="" style="endArrow=classic;html=1;rounded=0;exitX=1;exitY=0.5;exitDx=0;exitDy=0;entryX=0;entryY=0.5;entryDx=0;entryDy=0;" edge="1" parent="1" source="xIbpthMDQHaRVzhuKisp-10" target="xIbpthMDQHaRVzhuKisp-4">
          <mxGeometry width="50" height="50" relative="1" as="geometry">
            <mxPoint x="410" y="230" as="sourcePoint" />
            <mxPoint x="460" y="180" as="targetPoint" />
            <Array as="points">
              <mxPoint x="330" y="165" />
              <mxPoint x="330" y="331" />
            </Array>
          </mxGeometry>
        </mxCell>
        <mxCell id="xIbpthMDQHaRVzhuKisp-49" value="" style="endArrow=classic;html=1;rounded=0;exitX=1;exitY=0.5;exitDx=0;exitDy=0;entryX=0;entryY=0.5;entryDx=0;entryDy=0;" edge="1" parent="1" source="xIbpthMDQHaRVzhuKisp-9" target="xIbpthMDQHaRVzhuKisp-4">
          <mxGeometry width="50" height="50" relative="1" as="geometry">
            <mxPoint x="400" y="180" as="sourcePoint" />
            <mxPoint x="450" y="130" as="targetPoint" />
            <Array as="points">
              <mxPoint x="330" y="125" />
              <mxPoint x="330" y="331" />
            </Array>
          </mxGeometry>
        </mxCell>
        <mxCell id="xIbpthMDQHaRVzhuKisp-50" value="" style="endArrow=classic;html=1;rounded=0;exitX=1;exitY=0.5;exitDx=0;exitDy=0;entryX=0;entryY=0.5;entryDx=0;entryDy=0;" edge="1" parent="1" source="xIbpthMDQHaRVzhuKisp-8" target="xIbpthMDQHaRVzhuKisp-4">
          <mxGeometry width="50" height="50" relative="1" as="geometry">
            <mxPoint x="390" y="160" as="sourcePoint" />
            <mxPoint x="440" y="110" as="targetPoint" />
            <Array as="points">
              <mxPoint x="330" y="85" />
              <mxPoint x="330" y="331" />
            </Array>
          </mxGeometry>
        </mxCell>
      </root>
    </mxGraphModel>
  </diagram>
</mxfile>
